<?xml version="1.0" encoding="utf-8" standalone="no"?>
<!DOCTYPE svg PUBLIC "-//W3C//DTD SVG 1.1//EN"
  "http://www.w3.org/Graphics/SVG/1.1/DTD/svg11.dtd">
<svg xmlns:xlink="http://www.w3.org/1999/xlink" width="432pt" height="324pt" viewBox="0 0 432 324" xmlns="http://www.w3.org/2000/svg" version="1.1">
 <metadata>
  <rdf:RDF xmlns:dc="http://purl.org/dc/elements/1.1/" xmlns:cc="http://creativecommons.org/ns#" xmlns:rdf="http://www.w3.org/1999/02/22-rdf-syntax-ns#">
   <cc:Work>
    <dc:type rdf:resource="http://purl.org/dc/dcmitype/StillImage"/>
    <dc:date>2025-02-18T20:00:50.320882</dc:date>
    <dc:format>image/svg+xml</dc:format>
    <dc:creator>
     <cc:Agent>
      <dc:title>Matplotlib v3.10.0, https://matplotlib.org/</dc:title>
     </cc:Agent>
    </dc:creator>
   </cc:Work>
  </rdf:RDF>
 </metadata>
 <defs>
  <style type="text/css">*{stroke-linejoin: round; stroke-linecap: butt}</style>
 </defs>
 <g id="figure_1">
  <g id="patch_1">
   <path d="M 0 324 
L 432 324 
L 432 0 
L 0 0 
z
" style="fill: #ffffff"/>
  </g>
  <g id="axes_1">
   <g id="patch_2">
    <path d="M 54 288.36 
L 388.8 288.36 
L 388.8 38.88 
L 54 38.88 
z
" style="fill: #ffffff"/>
   </g>
   <g id="matplotlib.axis_1">
    <g id="xtick_1">
     <g id="line2d_1">
      <defs>
       <path id="m8e6bfeae69" d="M 0 0 
L 0 3.5 
" style="stroke: #000000; stroke-width: 0.8"/>
      </defs>
      <g>
       <use xlink:href="#m8e6bfeae69" x="54" y="288.36" style="stroke: #000000; stroke-width: 0.8"/>
      </g>
     </g>
     <g id="text_1">
      <!-- $0 \leftarrow$ -->
      <g transform="translate(40.794348 305.737725) scale(0.15 -0.15)">
       <defs>
        <path id="CMR17-30" d="M 2688 2025 
C 2688 2416 2682 3080 2413 3591 
C 2176 4039 1798 4198 1466 4198 
C 1158 4198 768 4058 525 3597 
C 269 3118 243 2524 243 2025 
C 243 1661 250 1106 448 619 
C 723 -39 1216 -128 1466 -128 
C 1760 -128 2208 -7 2470 600 
C 2662 1042 2688 1559 2688 2025 
z
M 1466 -26 
C 1056 -26 813 325 723 812 
C 653 1188 653 1738 653 2096 
C 653 2588 653 2997 736 3387 
C 858 3929 1216 4096 1466 4096 
C 1728 4096 2067 3923 2189 3400 
C 2272 3036 2278 2607 2278 2096 
C 2278 1680 2278 1169 2202 792 
C 2067 95 1690 -26 1466 -26 
z
" transform="scale(0.015625)"/>
        <path id="CMSY10-20" d="M 5811 1472 
C 5926 1472 6042 1472 6042 1600 
C 6042 1728 5926 1728 5811 1728 
L 1056 1728 
C 1408 1997 1581 2259 1632 2342 
C 1920 2784 1971 3187 1971 3194 
C 1971 3270 1894 3270 1843 3270 
C 1734 3270 1728 3258 1702 3142 
C 1555 2515 1178 1984 454 1683 
C 384 1658 358 1645 358 1600 
C 358 1555 390 1542 454 1517 
C 1120 1242 1549 742 1709 26 
C 1728 -51 1734 -70 1843 -70 
C 1894 -70 1971 -70 1971 7 
C 1971 20 1914 423 1645 851 
C 1517 1043 1331 1267 1056 1472 
L 5811 1472 
z
" transform="scale(0.015625)"/>
       </defs>
       <use xlink:href="#CMR17-30" transform="scale(0.996264)"/>
       <use xlink:href="#CMSY10-20" transform="translate(73.364486 0) scale(0.996264)"/>
      </g>
     </g>
    </g>
    <g id="xtick_2">
     <g id="line2d_2">
      <g>
       <use xlink:href="#m8e6bfeae69" x="383.311475" y="288.36" style="stroke: #000000; stroke-width: 0.8"/>
      </g>
     </g>
     <g id="text_2">
      <!-- $\rightarrow L$ -->
      <g transform="translate(368.786127 305.737725) scale(0.15 -0.15)">
       <defs>
        <path id="CMSY10-21" d="M 5338 1472 
C 4986 1203 4813 941 4762 858 
C 4474 416 4422 13 4422 6 
C 4422 -70 4499 -70 4550 -70 
C 4659 -70 4666 -58 4691 58 
C 4838 685 5216 1222 5939 1517 
C 6016 1542 6035 1555 6035 1600 
C 6035 1645 5997 1664 5984 1670 
C 5702 1779 4928 2099 4685 3174 
C 4666 3251 4659 3270 4550 3270 
C 4499 3270 4422 3270 4422 3193 
C 4422 3180 4480 2777 4749 2349 
C 4877 2157 5062 1933 5338 1728 
L 582 1728 
C 467 1728 352 1728 352 1600 
C 352 1472 467 1472 582 1472 
L 5338 1472 
z
" transform="scale(0.015625)"/>
        <path id="CMMI12-4c" d="M 2349 3861 
C 2406 4103 2426 4167 2989 4167 
C 3162 4167 3206 4167 3206 4288 
C 3206 4352 3136 4352 3110 4352 
C 2982 4352 2835 4352 2707 4352 
L 1850 4352 
C 1728 4352 1587 4352 1466 4352 
C 1414 4352 1344 4352 1344 4231 
C 1344 4167 1402 4167 1498 4167 
C 1888 4167 1888 4116 1888 4046 
C 1888 4034 1888 3995 1862 3899 
L 998 472 
C 941 249 928 185 480 185 
C 358 185 294 185 294 70 
C 294 0 333 0 461 0 
L 3328 0 
C 3469 0 3475 6 3520 121 
L 4013 1478 
C 4026 1510 4038 1548 4038 1567 
C 4038 1605 4006 1631 3974 1631 
C 3968 1631 3936 1631 3923 1605 
C 3910 1599 3910 1586 3859 1465 
C 3654 905 3366 185 2285 185 
L 1670 185 
C 1581 185 1568 185 1530 192 
C 1459 198 1453 211 1453 262 
C 1453 307 1466 345 1478 401 
L 2349 3861 
z
" transform="scale(0.015625)"/>
       </defs>
       <use xlink:href="#CMSY10-21" transform="scale(0.996264)"/>
       <use xlink:href="#CMMI12-4c" transform="translate(127.300683 0) scale(0.996264)"/>
      </g>
     </g>
    </g>
   </g>
   <g id="line2d_3">
    <path d="M 136.327869 267.91082 
L 191.213115 155.440328 
" clip-path="url(#pb90388bf2a)" style="fill: none; stroke: #000000; stroke-linecap: square"/>
    <defs>
     <path id="md726dc7b17" d="M 0 2 
C 0.530406 2 1.03916 1.789267 1.414214 1.414214 
C 1.789267 1.03916 2 0.530406 2 0 
C 2 -0.530406 1.789267 -1.03916 1.414214 -1.414214 
C 1.03916 -1.789267 0.530406 -2 0 -2 
C -0.530406 -2 -1.03916 -1.789267 -1.414214 -1.414214 
C -1.789267 -1.03916 -2 -0.530406 -2 0 
C -2 0.530406 -1.789267 1.03916 -1.414214 1.414214 
C -1.03916 1.789267 -0.530406 2 0 2 
z
" style="stroke: #000000"/>
    </defs>
    <g clip-path="url(#pb90388bf2a)">
     <use xlink:href="#md726dc7b17" x="136.327869" y="267.91082" style="stroke: #000000"/>
     <use xlink:href="#md726dc7b17" x="191.213115" y="155.440328" style="stroke: #000000"/>
    </g>
   </g>
   <g id="line2d_4">
    <path d="M 246.098361 267.91082 
L 191.213115 155.440328 
" clip-path="url(#pb90388bf2a)" style="fill: none; stroke: #000000; stroke-linecap: square"/>
    <g clip-path="url(#pb90388bf2a)">
     <use xlink:href="#md726dc7b17" x="246.098361" y="267.91082" style="stroke: #000000"/>
     <use xlink:href="#md726dc7b17" x="191.213115" y="155.440328" style="stroke: #000000"/>
    </g>
   </g>
   <g id="line2d_5">
    <path d="M 355.868852 267.91082 
L 246.098361 42.969836 
" clip-path="url(#pb90388bf2a)" style="fill: none; stroke: #000000; stroke-linecap: square"/>
    <g clip-path="url(#pb90388bf2a)">
     <use xlink:href="#md726dc7b17" x="355.868852" y="267.91082" style="stroke: #000000"/>
     <use xlink:href="#md726dc7b17" x="246.098361" y="42.969836" style="stroke: #000000"/>
    </g>
   </g>
   <g id="line2d_6">
    <path d="M 191.213115 155.440328 
L 246.098361 42.969836 
" clip-path="url(#pb90388bf2a)" style="fill: none; stroke: #000000; stroke-linecap: square"/>
    <g clip-path="url(#pb90388bf2a)">
     <use xlink:href="#md726dc7b17" x="191.213115" y="155.440328" style="stroke: #000000"/>
     <use xlink:href="#md726dc7b17" x="246.098361" y="42.969836" style="stroke: #000000"/>
    </g>
   </g>
   <g id="line2d_7">
    <path d="M 81.442623 267.91082 
L 136.327869 155.440328 
" clip-path="url(#pb90388bf2a)" style="fill: none; stroke-dasharray: 1,1.65; stroke-dashoffset: 0; stroke: #808080"/>
    <defs>
     <path id="m5b89a7c4a4" d="M 0 2 
C 0.530406 2 1.03916 1.789267 1.414214 1.414214 
C 1.789267 1.03916 2 0.530406 2 0 
C 2 -0.530406 1.789267 -1.03916 1.414214 -1.414214 
C 1.03916 -1.789267 0.530406 -2 0 -2 
C -0.530406 -2 -1.03916 -1.789267 -1.414214 -1.414214 
C -1.789267 -1.03916 -2 -0.530406 -2 0 
C -2 0.530406 -1.789267 1.03916 -1.414214 1.414214 
C -1.03916 1.789267 -0.530406 2 0 2 
z
" style="stroke: #808080"/>
    </defs>
    <g clip-path="url(#pb90388bf2a)">
     <use xlink:href="#m5b89a7c4a4" x="81.442623" y="267.91082" style="fill: #808080; stroke: #808080"/>
     <use xlink:href="#m5b89a7c4a4" x="136.327869" y="155.440328" style="fill: #808080; stroke: #808080"/>
    </g>
   </g>
   <g id="line2d_8">
    <path d="M 191.213115 267.91082 
L 136.327869 155.440328 
" clip-path="url(#pb90388bf2a)" style="fill: none; stroke-dasharray: 1,1.65; stroke-dashoffset: 0; stroke: #808080"/>
    <g clip-path="url(#pb90388bf2a)">
     <use xlink:href="#m5b89a7c4a4" x="191.213115" y="267.91082" style="fill: #808080; stroke: #808080"/>
     <use xlink:href="#m5b89a7c4a4" x="136.327869" y="155.440328" style="fill: #808080; stroke: #808080"/>
    </g>
   </g>
   <g id="line2d_9">
    <path d="M 300.983607 267.91082 
L 191.213115 42.969836 
" clip-path="url(#pb90388bf2a)" style="fill: none; stroke-dasharray: 1,1.65; stroke-dashoffset: 0; stroke: #808080"/>
    <g clip-path="url(#pb90388bf2a)">
     <use xlink:href="#m5b89a7c4a4" x="300.983607" y="267.91082" style="fill: #808080; stroke: #808080"/>
     <use xlink:href="#m5b89a7c4a4" x="191.213115" y="42.969836" style="fill: #808080; stroke: #808080"/>
    </g>
   </g>
   <g id="line2d_10">
    <path d="M 136.327869 155.440328 
L 191.213115 42.969836 
" clip-path="url(#pb90388bf2a)" style="fill: none; stroke-dasharray: 1,1.65; stroke-dashoffset: 0; stroke: #808080"/>
    <g clip-path="url(#pb90388bf2a)">
     <use xlink:href="#m5b89a7c4a4" x="136.327869" y="155.440328" style="fill: #808080; stroke: #808080"/>
     <use xlink:href="#m5b89a7c4a4" x="191.213115" y="42.969836" style="fill: #808080; stroke: #808080"/>
    </g>
   </g>
   <g id="line2d_11">
    <path d="M 136.327869 267.91082 
L 81.442623 267.91082 
" clip-path="url(#pb90388bf2a)" style="fill: none; stroke: #000000; stroke-linecap: square"/>
   </g>
   <g id="line2d_12">
    <path d="M 246.098361 267.91082 
L 191.213115 267.91082 
" clip-path="url(#pb90388bf2a)" style="fill: none; stroke: #000000; stroke-linecap: square"/>
   </g>
   <g id="line2d_13">
    <path d="M 355.868852 267.91082 
L 300.983607 267.91082 
" clip-path="url(#pb90388bf2a)" style="fill: none; stroke: #000000; stroke-linecap: square"/>
   </g>
   <g id="line2d_14">
    <path d="M 191.213115 155.440328 
L 136.327869 155.440328 
" clip-path="url(#pb90388bf2a)" style="fill: none; stroke: #000000; stroke-linecap: square"/>
   </g>
   <g id="line2d_15">
    <path d="M 246.098361 42.969836 
L 191.213115 42.969836 
" clip-path="url(#pb90388bf2a)" style="fill: none; stroke: #000000; stroke-linecap: square"/>
   </g>
   <g id="line2d_16">
    <path d="M 312.860191 267.91082 
" clip-path="url(#pb90388bf2a)" style="fill: none; stroke: #ff0000; stroke-width: 1.5; stroke-linecap: square"/>
    <defs>
     <path id="md9715bbfc4" d="M 0 -6 
L -1.347084 -1.854102 
L -5.706339 -1.854102 
L -2.179628 0.708204 
L -3.526712 4.854102 
L -0 2.291796 
L 3.526712 4.854102 
L 2.179628 0.708204 
L 5.706339 -1.854102 
L 1.347084 -1.854102 
z
" style="stroke: #ff0000; stroke-linejoin: bevel"/>
    </defs>
    <g clip-path="url(#pb90388bf2a)">
     <use xlink:href="#md9715bbfc4" x="312.860191" y="267.91082" style="fill: #ff0000; stroke: #ff0000; stroke-linejoin: bevel"/>
    </g>
   </g>
   <g id="line2d_17">
    <path d="M 101.811109 267.91082 
" clip-path="url(#pb90388bf2a)" style="fill: none; stroke: #ff0000; stroke-width: 1.5; stroke-linecap: square"/>
    <g clip-path="url(#pb90388bf2a)">
     <use xlink:href="#md9715bbfc4" x="101.811109" y="267.91082" style="fill: #ff0000; stroke: #ff0000; stroke-linejoin: bevel"/>
    </g>
   </g>
   <g id="line2d_18">
    <path d="M 211.581601 267.91082 
" clip-path="url(#pb90388bf2a)" style="fill: none; stroke: #ff0000; stroke-width: 1.5; stroke-linecap: square"/>
    <g clip-path="url(#pb90388bf2a)">
     <use xlink:href="#md9715bbfc4" x="211.581601" y="267.91082" style="fill: #ff0000; stroke: #ff0000; stroke-linejoin: bevel"/>
    </g>
   </g>
   <g id="line2d_19">
    <path d="M 156.696355 155.440328 
" clip-path="url(#pb90388bf2a)" style="fill: none; stroke: #ff0000; stroke-width: 1.5; stroke-linecap: square"/>
    <g clip-path="url(#pb90388bf2a)">
     <use xlink:href="#md9715bbfc4" x="156.696355" y="155.440328" style="fill: #ff0000; stroke: #ff0000; stroke-linejoin: bevel"/>
    </g>
   </g>
   <g id="patch_3">
    <path d="M 54 288.36 
L 388.8 288.36 
" style="fill: none; stroke: #000000; stroke-width: 0.8; stroke-linejoin: miter; stroke-linecap: square"/>
   </g>
   <g id="text_3">
    <!-- $\mathbf{1}$ -->
    <g transform="translate(75.838638 259.94535) scale(0.2 -0.2)">
     <defs>
      <path id="CMBX12-31" d="M 2214 3975 
C 2214 4160 2202 4160 1997 4160 
C 1523 3776 813 3776 672 3776 
L 550 3776 
L 550 3503 
L 672 3503 
C 896 3503 1235 3541 1491 3624 
L 1491 267 
L 602 267 
L 602 0 
C 870 0 1542 0 1843 0 
C 2144 0 2822 0 3091 0 
L 3091 267 
L 2214 267 
L 2214 3975 
z
" transform="scale(0.015625)"/>
     </defs>
     <use xlink:href="#CMBX12-31" transform="scale(0.996264)"/>
    </g>
   </g>
   <g id="text_4">
    <!-- $\mathbf{2}$ -->
    <g transform="translate(185.60913 259.94535) scale(0.2 -0.2)">
     <defs>
      <path id="CMBX12-32" d="M 3232 1368 
L 2963 1368 
C 2944 1234 2899 858 2803 795 
C 2752 750 2253 750 2157 750 
L 1165 750 
C 1408 954 1990 1438 2086 1509 
C 2797 2038 3232 2362 3232 2974 
C 3232 3725 2547 4178 1702 4178 
C 979 4178 358 3770 358 3165 
C 358 2827 634 2732 781 2732 
C 979 2732 1210 2865 1210 3159 
C 1210 3427 1011 3560 813 3586 
C 1069 3879 1408 3904 1542 3904 
C 2131 3904 2413 3427 2413 2968 
C 2413 2471 2074 2013 1811 1739 
L 422 293 
C 358 235 358 223 358 108 
L 358 0 
L 3046 0 
L 3232 1368 
z
" transform="scale(0.015625)"/>
     </defs>
     <use xlink:href="#CMBX12-32" transform="scale(0.996264)"/>
    </g>
   </g>
   <g id="text_5">
    <!-- $\mathbf{3}$ -->
    <g transform="translate(295.379622 259.94535) scale(0.2 -0.2)">
     <defs>
      <path id="CMBX12-33" d="M 1670 2112 
C 2387 2112 2387 1454 2387 1151 
C 2387 866 2387 196 1696 196 
C 1562 196 1139 196 832 424 
C 1107 481 1203 678 1203 868 
C 1203 1128 1018 1312 755 1312 
C 486 1312 301 1128 301 862 
C 301 278 941 -64 1728 -64 
C 2784 -64 3290 513 3290 1147 
C 3290 1459 3130 2061 2138 2232 
C 2701 2406 3091 2804 3091 3310 
C 3091 3792 2630 4197 1741 4197 
C 1024 4197 499 3818 499 3298 
C 499 2977 749 2874 915 2874 
C 1101 2874 1325 2996 1325 3292 
C 1325 3441 1261 3659 960 3704 
C 1229 3968 1664 3968 1702 3968 
C 2272 3968 2272 3522 2272 3329 
C 2272 3135 2246 2837 2042 2573 
C 1875 2352 1709 2340 1466 2340 
C 1389 2321 1261 2321 1235 2309 
C 1197 2290 1197 2245 1197 2220 
C 1197 2112 1235 2112 1363 2112 
L 1670 2112 
z
" transform="scale(0.015625)"/>
     </defs>
     <use xlink:href="#CMBX12-33" transform="scale(0.996264)"/>
    </g>
   </g>
   <g id="text_6">
    <!-- $\mathbf{4}$ -->
    <g transform="translate(130.723884 147.474858) scale(0.2 -0.2)">
     <defs>
      <path id="CMBX12-34" d="M 2771 1006 
L 3392 1006 
L 3392 1280 
L 2771 1280 
L 2771 4007 
C 2771 4166 2765 4192 2605 4192 
C 2490 4192 2477 4192 2400 4096 
L 198 1280 
L 198 1006 
L 2016 1006 
L 2016 267 
L 1318 267 
L 1318 0 
C 1504 0 2138 0 2368 0 
C 2586 0 3219 0 3392 -6 
L 3392 267 
L 2771 267 
L 2771 1006 
z
M 2074 3302 
L 2074 1280 
L 493 1280 
L 2074 3302 
z
" transform="scale(0.015625)"/>
     </defs>
     <use xlink:href="#CMBX12-34" transform="scale(0.996264)"/>
    </g>
   </g>
   <g id="text_7">
    <!-- $\mathbf{5}$ -->
    <g transform="translate(185.60913 35.004366) scale(0.2 -0.2)">
     <defs>
      <path id="CMBX12-35" d="M 986 3315 
C 1203 3264 1376 3264 1472 3264 
C 1626 3264 1990 3264 2419 3527 
C 2618 3647 2950 3936 2950 4083 
C 2950 4115 2950 4192 2874 4192 
C 2867 4192 2854 4192 2790 4159 
C 2496 4054 2182 3982 1824 3982 
C 1459 3982 1152 4052 851 4160 
C 806 4173 787 4186 768 4186 
C 691 4186 691 4122 691 4014 
L 691 2163 
C 691 2042 691 1972 819 1972 
C 883 1972 896 1979 947 2042 
C 1024 2132 1254 2414 1798 2414 
C 2387 2414 2387 1815 2387 1312 
C 2387 852 2387 190 1600 190 
C 1363 190 960 279 742 640 
C 1082 640 1165 895 1165 1035 
C 1165 1264 998 1435 762 1435 
C 570 1435 358 1321 358 1022 
C 358 470 864 -64 1626 -64 
C 2611 -64 3232 503 3232 1293 
C 3232 2070 2701 2624 1824 2624 
C 1568 2624 1261 2573 986 2369 
L 986 3315 
z
" transform="scale(0.015625)"/>
     </defs>
     <use xlink:href="#CMBX12-35" transform="scale(0.996264)"/>
    </g>
   </g>
   <g id="text_8">
    <!-- $\boldsymbol{\beta}_3$ -->
    <g style="fill: #ff0000" transform="translate(305.061342 258.347273) scale(0.15 -0.15)">
     <defs>
      <path id="CMMIB10-c" d="M 128 -1026 
C 122 -1038 102 -1121 102 -1127 
C 102 -1216 198 -1216 256 -1216 
C 384 -1216 384 -1204 422 -1071 
C 442 -969 826 552 832 565 
C 1101 120 1594 -64 2106 -64 
C 3392 -64 4109 915 4109 1753 
C 4109 2201 3910 2445 3699 2605 
C 3930 2795 4192 3205 4192 3641 
C 4192 4177 3795 4480 3194 4480 
C 2278 4480 1331 3775 1101 2853 
L 128 -1026 
z
M 3027 2579 
C 2874 2468 2714 2468 2624 2468 
C 2598 2468 2317 2468 2317 2520 
C 2317 2624 2630 2624 2714 2624 
C 2829 2624 2906 2624 3027 2579 
z
M 3245 2802 
C 3034 2853 2854 2853 2733 2853 
C 2528 2853 2010 2853 2010 2508 
C 2010 2240 2394 2240 2618 2240 
C 2726 2240 3014 2240 3302 2360 
C 3354 2264 3373 2136 3373 2028 
C 3373 1797 3206 1023 3008 690 
C 2810 375 2496 165 2093 165 
C 1498 165 998 521 998 1094 
C 998 1221 1030 1355 1043 1419 
C 1139 1794 1344 2628 1421 2908 
C 1626 3602 2400 4251 3162 4251 
C 3398 4251 3539 4138 3539 3892 
C 3539 3697 3386 3048 3245 2802 
z
" transform="scale(0.015625)"/>
      <path id="CMR17-33" d="M 1414 2157 
C 1984 2157 2234 1662 2234 1090 
C 2234 320 1824 25 1453 25 
C 1114 25 563 194 390 693 
C 422 680 454 680 486 680 
C 640 680 755 782 755 948 
C 755 1133 614 1216 486 1216 
C 378 1216 211 1165 211 926 
C 211 335 787 -128 1466 -128 
C 2176 -128 2720 430 2720 1085 
C 2720 1707 2208 2157 1600 2227 
C 2086 2328 2554 2756 2554 3329 
C 2554 3820 2048 4179 1472 4179 
C 890 4179 378 3829 378 3329 
C 378 3110 544 3072 627 3072 
C 762 3072 877 3155 877 3321 
C 877 3486 762 3569 627 3569 
C 602 3569 570 3569 544 3557 
C 730 3959 1235 4032 1459 4032 
C 1683 4032 2106 3925 2106 3320 
C 2106 3143 2080 2828 1862 2550 
C 1670 2304 1453 2304 1242 2284 
C 1210 2284 1062 2269 1037 2269 
C 992 2263 966 2257 966 2208 
C 966 2163 973 2157 1101 2157 
L 1414 2157 
z
" transform="scale(0.015625)"/>
     </defs>
     <use xlink:href="#CMMIB10-c" transform="scale(0.996264)"/>
     <use xlink:href="#CMR17-33" transform="translate(69.115648 -22.858723) scale(0.697382)"/>
    </g>
   </g>
   <g id="text_9">
    <!-- $\boldsymbol{\beta}_4$ -->
    <g style="fill: #ff0000" transform="translate(94.01226 258.347273) scale(0.15 -0.15)">
     <defs>
      <path id="CMR17-34" d="M 2150 4122 
C 2150 4256 2144 4256 2029 4256 
L 128 1254 
L 128 1088 
L 1779 1088 
L 1779 457 
C 1779 224 1766 160 1318 160 
L 1197 160 
L 1197 0 
C 1402 0 1747 0 1965 0 
C 2182 0 2528 0 2733 0 
L 2733 160 
L 2611 160 
C 2163 160 2150 224 2150 457 
L 2150 1088 
L 2803 1088 
L 2803 1254 
L 2150 1254 
L 2150 4122 
z
M 1798 3703 
L 1798 1254 
L 256 1254 
L 1798 3703 
z
" transform="scale(0.015625)"/>
     </defs>
     <use xlink:href="#CMMIB10-c" transform="scale(0.996264)"/>
     <use xlink:href="#CMR17-34" transform="translate(69.115648 -22.858723) scale(0.697382)"/>
    </g>
   </g>
   <g id="text_10">
    <!-- $\boldsymbol{\beta}_4$ -->
    <g style="fill: #ff0000" transform="translate(203.782752 258.347273) scale(0.15 -0.15)">
     <use xlink:href="#CMMIB10-c" transform="scale(0.996264)"/>
     <use xlink:href="#CMR17-34" transform="translate(69.115648 -22.858723) scale(0.697382)"/>
    </g>
   </g>
   <g id="text_11">
    <!-- $\boldsymbol{\beta}_4$ -->
    <g style="fill: #ff0000" transform="translate(148.897506 145.876781) scale(0.15 -0.15)">
     <use xlink:href="#CMMIB10-c" transform="scale(0.996264)"/>
     <use xlink:href="#CMR17-34" transform="translate(69.115648 -22.858723) scale(0.697382)"/>
    </g>
   </g>
  </g>
 </g>
 <defs>
  <clipPath id="pb90388bf2a">
   <rect x="54" y="38.88" width="334.8" height="249.48"/>
  </clipPath>
 </defs>
</svg>
