<?xml version="1.0" encoding="UTF-8" standalone="no"?>
<svg
   viewBox="0 0 328.07999 119.34533"
   height="119.34533"
   width="328.07999"
   xml:space="preserve"
   id="svg2"
   version="1.1"
   sodipodi:docname="full_arg-2.svg"
   inkscape:version="1.4 (e7c3feb1, 2024-10-09)"
   xmlns:inkscape="http://www.inkscape.org/namespaces/inkscape"
   xmlns:sodipodi="http://sodipodi.sourceforge.net/DTD/sodipodi-0.dtd"
   xmlns="http://www.w3.org/2000/svg"
   xmlns:svg="http://www.w3.org/2000/svg"
   xmlns:rdf="http://www.w3.org/1999/02/22-rdf-syntax-ns#"
   xmlns:cc="http://creativecommons.org/ns#"
   xmlns:dc="http://purl.org/dc/elements/1.1/"><sodipodi:namedview
     id="namedview1"
     pagecolor="#ffffff"
     bordercolor="#000000"
     borderopacity="0.25"
     inkscape:showpageshadow="2"
     inkscape:pageopacity="0.0"
     inkscape:pagecheckerboard="0"
     inkscape:deskcolor="#d1d1d1"
     inkscape:zoom="1.7140675"
     inkscape:cx="158.39516"
     inkscape:cy="40.838531"
     inkscape:window-width="1920"
     inkscape:window-height="1027"
     inkscape:window-x="1280"
     inkscape:window-y="25"
     inkscape:window-maximized="1"
     inkscape:current-layer="g16" /><metadata
     id="metadata8"><rdf:RDF><cc:Work
         rdf:about=""><dc:format>image/svg+xml</dc:format><dc:type
           rdf:resource="http://purl.org/dc/dcmitype/StillImage" /></cc:Work></rdf:RDF></metadata><defs
     id="defs6" /><g
     transform="matrix(1.3333333,0,0,-1.3333333,0,119.34533)"
     id="g10"><g
       transform="translate(6.887,11.756)"
       id="g12"><g
         id="g14"><g
           id="g16"><g
             id="g18" /><g
             id="g34" /><g
             id="g50"><path
               id="path52"
               style="fill:#000000;fill-opacity:1;fill-rule:nonzero;stroke:none"
               d="M 1.40903,0 C 1.40903,0.77818 0.77818,1.40903 0,1.40903 -0.77818,1.40903 -1.40903,0.77818 -1.40903,0 c 0,-0.77818 0.63085,-1.40903 1.40903,-1.40903 0.77818,0 1.40903,0.63085 1.40903,1.40903 z" /><g
               id="g54"><g
                 id="g56" /></g></g><g
             id="g58"><path
               id="path60"
               style="fill:#000000;fill-opacity:1;fill-rule:nonzero;stroke:none"
               d="m 43.92923,0 c 0,0.77818 -0.63086,1.40903 -1.40904,1.40903 -0.7782,0 -1.40904,-0.63085 -1.40904,-1.40903 0,-0.77818 0.63084,-1.40903 1.40904,-1.40903 0.77818,0 1.40904,0.63085 1.40904,1.40903 z" /><g
               transform="translate(42.52)"
               id="g62"><g
                 id="g64" /><g
                 transform="translate(-42.52)"
                 id="g66" /></g></g><g
             id="g68"><path
               id="path70"
               style="fill:#000000;fill-opacity:1;fill-rule:nonzero;stroke:none"
               d="m 86.44942,0 c 0,0.77818 -0.63085,1.40903 -1.40905,1.40903 -0.77818,0 -1.40904,-0.63085 -1.40904,-1.40903 0,-0.77818 0.63086,-1.40903 1.40904,-1.40903 0.7782,0 1.40905,0.63085 1.40905,1.40903 z" /><g
               transform="translate(85.04)"
               id="g72"><g
                 id="g74" /><g
                 transform="translate(-85.04)"
                 id="g76" /></g></g><g
             id="g78"><path
               id="path80"
               style="fill:#000000;fill-opacity:1;fill-rule:nonzero;stroke:none"
               d="m 43.92923,14.17339 c 0,0.77819 -0.63086,1.40904 -1.40904,1.40904 -0.7782,0 -1.40904,-0.63085 -1.40904,-1.40904 0,-0.77819 0.63084,-1.40905 1.40904,-1.40905 0.77818,0 1.40904,0.63086 1.40904,1.40905 z" /><g
               transform="translate(42.52,14.173)"
               id="g82"><g
                 id="g84" /><g
                 transform="translate(-42.52,-14.173)"
                 id="g86" /></g></g><g
             id="g88"><path
               id="path90"
               style="fill:#000000;fill-opacity:1;fill-rule:nonzero;stroke:none"
               d="m 15.58243,28.34679 c 0,0.77818 -0.63085,1.40904 -1.40904,1.40904 -0.77819,0 -1.40905,-0.63086 -1.40905,-1.40904 0,-0.77819 0.63086,-1.40905 1.40905,-1.40905 0.77819,0 1.40904,0.63086 1.40904,1.40905 z" /><g
               transform="translate(14.174,28.346)"
               id="g92"><g
                 id="g94" /><g
                 transform="translate(-14.174,-28.346)"
                 id="g96" /></g></g><g
             id="g98"><path
               id="path100"
               style="fill:#000000;fill-opacity:1;fill-rule:nonzero;stroke:none"
               d="m 72.27602,42.52019 c 0,0.77818 -0.63085,1.40904 -1.40905,1.40904 -0.77818,0 -1.40904,-0.63086 -1.40904,-1.40904 0,-0.7782 0.63086,-1.40904 1.40904,-1.40904 0.7782,0 1.40905,0.63084 1.40905,1.40904 z" /><g
               transform="translate(70.866,42.52)"
               id="g102"><g
                 id="g104" /><g
                 transform="translate(-70.866,-42.52)"
                 id="g106" /></g></g><g
             id="g108"><path
               id="path110"
               style="fill:#000000;fill-opacity:1;fill-rule:nonzero;stroke:none"
               d="m 43.92923,56.69359 c 0,0.77818 -0.63086,1.40903 -1.40904,1.40903 -0.7782,0 -1.40904,-0.63085 -1.40904,-1.40903 0,-0.7782 0.63084,-1.40904 1.40904,-1.40904 0.77818,0 1.40904,0.63084 1.40904,1.40904 z" /><g
               transform="translate(42.52,56.693)"
               id="g112"><g
                 id="g114" /><g
                 transform="translate(-42.52,-56.693)"
                 id="g116" /></g></g><path
             id="path118"
             style="fill:none;stroke:#000000;stroke-width:0.3985;stroke-linecap:butt;stroke-linejoin:miter;stroke-miterlimit:10;stroke-dasharray:none;stroke-opacity:1"
             d="M 42.52019,1.60829 V 12.5651" /><path
             id="path120"
             style="fill:none;stroke:#000000;stroke-width:0.3985;stroke-linecap:butt;stroke-linejoin:miter;stroke-miterlimit:10;stroke-dasharray:none;stroke-opacity:1"
             d="m 0,1.60829 v 26.7385 h 12.5651" /><path
             id="path122"
             style="fill:none;stroke:#000000;stroke-width:0.3985;stroke-linecap:butt;stroke-linejoin:miter;stroke-miterlimit:10;stroke-dasharray:none;stroke-opacity:1"
             d="M 15.78168,28.34679 H 28.34679 V 14.17339 H 40.9119" /><path
             id="path124"
             style="fill:none;stroke:#000000;stroke-width:0.3985;stroke-linecap:butt;stroke-linejoin:miter;stroke-miterlimit:10;stroke-dasharray:none;stroke-opacity:1"
             d="M 14.17339,29.95508 V 56.69359 H 40.9119" /><path
             id="path126"
             style="fill:none;stroke:#000000;stroke-width:0.3985;stroke-linecap:butt;stroke-linejoin:miter;stroke-miterlimit:10;stroke-dasharray:none;stroke-opacity:1"
             d="m 44.12848,14.17339 h 12.56511 v 28.3468 h 12.56509" /><path
             id="path128"
             style="fill:none;stroke:#000000;stroke-width:0.3985;stroke-linecap:butt;stroke-linejoin:miter;stroke-miterlimit:10;stroke-dasharray:none;stroke-opacity:1"
             d="m 85.04037,1.60829 v 40.9119 h -12.5651" /><path
             id="path130"
             style="fill:none;stroke:#000000;stroke-width:0.3985;stroke-linecap:butt;stroke-linejoin:miter;stroke-miterlimit:10;stroke-dasharray:none;stroke-opacity:1"
             d="M 70.86697,44.12848 V 56.69359 H 44.12848" /><g
             id="g248"><g
               transform="translate(-2.517,-8.694)"
               id="g250"><g
                 id="g252"><g
                   transform="translate(-4.37,-3.062)"
                   id="g254"><text
   id="text258"
   style="font-variant:normal;font-size:6.97380018px;font-family:'URW Gothic';-inkscape-font-specification:URWPalladioL-Ital;writing-mode:lr-tb;fill:#000000;fill-opacity:1;fill-rule:nonzero;stroke:none"
   transform="matrix(1,0,0,-1,4.37,3.062)"><tspan
     id="tspan256"
     y="0"
     x="0">A</tspan></text>
<g
   transform="translate(4.37,3.062)"
   id="g260" /></g></g><g
                 transform="translate(2.517,8.694)"
                 id="g262" /></g></g><g
             id="g264"><g
               transform="translate(40.389,-8.694)"
               id="g266"><g
                 id="g268"><g
                   transform="translate(-47.276,-3.062)"
                   id="g270"><text
   id="text274"
   style="font-variant:normal;font-size:6.97380018px;font-family:'URW Gothic';-inkscape-font-specification:URWPalladioL-Ital;writing-mode:lr-tb;fill:#000000;fill-opacity:1;fill-rule:nonzero;stroke:none"
   transform="matrix(1,0,0,-1,47.276,3.062)"><tspan
     id="tspan272"
     y="0"
     x="0">B</tspan></text>
<g
   transform="translate(47.276,3.062)"
   id="g276" /></g></g><g
                 transform="translate(-40.389,8.694)"
                 id="g278" /></g></g><g
             id="g280"><g
               transform="translate(82.714,-8.694)"
               id="g282"><g
                 id="g284"><g
                   transform="translate(-89.601,-3.062)"
                   id="g286"><text
   id="text290"
   style="font-variant:normal;font-size:6.97380018px;font-family:'URW Gothic';-inkscape-font-specification:URWPalladioL-Ital;writing-mode:lr-tb;fill:#000000;fill-opacity:1;fill-rule:nonzero;stroke:none"
   transform="matrix(1,0,0,-1,89.601,3.062)"><tspan
     id="tspan288"
     y="0"
     x="0">C</tspan></text>
<g
   transform="translate(89.601,3.062)"
   id="g292" /></g></g><g
                 transform="translate(-82.714,8.694)"
                 id="g294" /></g></g><g
             id="g392"><g
               transform="translate(40.002,59.954)"
               id="g394"><g
                 id="g396"><g
                   transform="translate(-46.889,-71.71)"
                   id="g398"><text
   id="text402"
   style="font-variant:normal;font-size:6.97380018px;font-family:'URW Gothic';-inkscape-font-specification:URWPalladioL-Ital;writing-mode:lr-tb;fill:#000000;fill-opacity:1;fill-rule:nonzero;stroke:none"
   transform="matrix(1,0,0,-1,46.889,71.71)"><tspan
     id="tspan400"
     y="0"
     x="0">G</tspan></text>
<g
   transform="translate(46.889,71.71)"
   id="g404" /></g></g><g
                 transform="translate(-40.002,-59.954)"
                 id="g406" /></g></g><g
             id="g440"><g
               transform="translate(45.708,7.614)"
               id="g442"><g
                 id="g444"><g
                   transform="translate(-52.595,-19.37)"
                   id="g446"><text
   id="text450"
   style="font-variant:normal;font-size:6.97380018px;font-family:'URW Gothic';-inkscape-font-specification:URWPalladioL-Ital;writing-mode:lr-tb;fill:#000000;fill-opacity:1;fill-rule:nonzero;stroke:none"
   transform="matrix(1,0,0,-1,52.8,19.37)"><tspan
     id="tspan448"
     y="0"
     x="0">x</tspan></text>
<g
   transform="translate(52.595,19.37)"
   id="g452" /></g></g><g
                 transform="translate(-45.708,-7.614)"
                 id="g454" /></g></g><g
             id="g456"><g
               transform="translate(17.361,31.607)"
               id="g458"><g
                 id="g460"><g
                   transform="translate(-24.248,-43.363)"
                   id="g462"><text
   id="text466"
   style="font-variant:normal;font-size:6.97380018px;font-family:'URW Gothic';-inkscape-font-specification:URWPalladioL-Ital;writing-mode:lr-tb;fill:#000000;fill-opacity:1;fill-rule:nonzero;stroke:none"
   transform="matrix(1,0,0,-1,24.248,43.363)"><tspan
     id="tspan464"
     y="0"
     x="0">E</tspan></text>
<g
   transform="translate(24.248,43.363)"
   id="g468" /></g></g><g
                 transform="translate(-17.361,-31.607)"
                 id="g470" /></g></g><g
             id="g488"><g
               transform="translate(63.801,45.78)"
               id="g490"><g
                 id="g492"><g
                   transform="translate(-70.688,-57.536)"
                   id="g494"><text
   id="text498"
   style="font-variant:normal;font-size:6.97380018px;font-family:'URW Gothic';-inkscape-font-specification:URWPalladioL-Ital;writing-mode:lr-tb;fill:#000000;fill-opacity:1;fill-rule:nonzero;stroke:none"
   transform="matrix(1,0,0,-1,70.688,57.536)"><tspan
     id="tspan496"
     y="0"
     x="0">F</tspan></text>
<g
   transform="translate(70.688,57.536)"
   id="g500" /></g></g><g
                 transform="translate(-63.801,-45.78)"
                 id="g502" /></g></g><g
             id="g520"><g
               transform="translate(39.807,17.434)"
               id="g522"><g
                 id="g524"><g
                   transform="translate(-46.694,-29.19)"
                   id="g526"><text
   id="text530"
   style="font-variant:normal;font-size:6.97380018px;font-family:'URW Gothic';-inkscape-font-specification:URWPalladioL-Ital;writing-mode:lr-tb;fill:#000000;fill-opacity:1;fill-rule:nonzero;stroke:none"
   transform="matrix(1,0,0,-1,46.694,29.19)"><tspan
     id="tspan528"
     y="0"
     x="0">D</tspan></text>
<g
   transform="translate(46.694,29.19)"
   id="g532" /></g></g><g
                 transform="translate(-39.807,-17.434)"
                 id="g534" /></g></g><g
             id="g536"><g
               transform="translate(40.002,59.954)"
               id="g538"><g
                 id="g540"><g
                   transform="translate(-46.889,-71.71)"
                   id="g542"><text
   id="text546"
   style="font-variant:normal;font-size:6.97380018px;font-family:'URW Gothic';-inkscape-font-specification:URWPalladioL-Ital;writing-mode:lr-tb;fill:#000000;fill-opacity:1;fill-rule:nonzero;stroke:none"
   transform="matrix(1,0,0,-1,46.889,71.71)"><tspan
     id="tspan544"
     y="0"
     x="0">G</tspan></text>
<g
   transform="translate(46.889,71.71)"
   id="g548" /></g></g><g
                 transform="translate(-40.002,-59.954)"
                 id="g550" /></g></g></g></g></g></g></svg>
